#!OML:ASF E:\Steps\Project 1\Capture day 1\Session 2\Subject.ASF
:FULLY-SPECIFIED
:DEGREES
439
root 12.3715 18.8422 7.41989 -152.568 3.70462 177.698
lowerback -30.7809 -1.78376 -5.616
upperback -3.992 1.01086 -1.1078
thorax 11.5725 0.802537 2.33416
lowerneck -4.94793 -1.30366 1.05219
upperneck -2.10103 -1.66319 1.33773
head 0.169458 -0.776578 0.207637
rclavicle 7.72775e-015 -9.93923e-015
rhumerus -40.2225 -30.0435 -68.8313
rradius 17.9316
rwrist 13.0382
rhand -8.47693 -49.5569
rfingers 7.12502
rthumb 17.4499 -78.7937
lclavicle 7.72775e-015 -9.93923e-015
lhumerus -30.554 13.7384 74.7938
lradius 11.3042
lwrist -20.1615
lhand -22.1609 -12.0331
lfingers 7.12502
lthumb 4.25344 17.9042
rfemur -21.2754 4.50464 21.6923
rtibia 5.67665
rfoot -20.7166 -3.43393
rtoes -11.3117
lfemur -23.6588 -9.07491 -21.4194
ltibia 8.32269
lfoot -8.10162 -5.91714
ltoes -33.6469
440
root 12.3674 18.8438 7.42033 -152.535 3.61225 177.735
lowerback -30.6362 -1.78501 -5.60393
upperback -4.06417 0.993063 -1.06932
thorax 11.431 0.80293 2.36058
lowerneck -4.81902 -1.32233 0.861312
upperneck -2.15529 -1.67485 1.54979
head 0.135906 -0.780825 0.303442
rclavicle -7.40473e-015 3.61788e-014
rhumerus -40.7601 -30.3188 -68.2506
rradius 17.9204
rwrist 13.443
rhand -8.63585 -49.4243
rfingers 7.12502
rthumb 17.2969 -78.6746
lclavicle -7.40473e-015 3.61788e-014
lhumerus -30.8458 14.4998 74.2119
lradius 11.0508
lwrist -20.9035
lhand -22.1209 -12.2413
lfingers 7.12502
lthumb 4.292 17.6952
rfemur -21.315 4.47676 21.7499
rtibia 5.7169
rfoot -20.8176 -3.49417
rtoes -11.3407
lfemur -23.7203 -9.07143 -21.379
ltibia 8.37579
lfoot -8.14086 -5.98271
ltoes -33.7627
441
root 12.364 18.846 7.41878 -152.579 3.51488 177.813
lowerback -30.0927 -1.75784 -5.54221
upperback -4.66877 0.96642 -1.1058
thorax 11.2986 0.808291 2.42786
lowerneck -4.56234 -1.22921 0.620214
upperneck -2.07771 -1.54419 1.78795
head 0.121957 -0.716694 0.417956
rclavicle -5.96354e-015 7.15625e-015
rhumerus -41.359 -30.3517 -67.7154
rradius 17.7989
rwrist 13.672
rhand -8.5457 -49.7147
rfingers 7.12502
rthumb 17.3837 -78.9573
lclavicle -5.96354e-015 7.15625e-015
lhumerus -31.3361 14.8599 73.7211
lradius 10.8597
lwrist -21.2915
lhand -22.0172 -12.4475
lfingers 7.12502
lthumb 4.39216 17.487
rfemur -21.217 4.41646 21.8724
rtibia 5.65975
rfoot -20.839 -3.49529
rtoes -11.3352
lfemur -23.6701 -9.03466 -21.3015
ltibia 8.38829
lfoot -8.18911 -6.05765
ltoes -34.3772
442
root 12.3637 18.8485 7.41529 -152.673 3.48497 177.789
lowerback -29.7962 -1.77727 -5.665
upperback -4.76749 0.958075 -1.0762
thorax 11.0334 0.812659 2.52427
lowerneck -4.481 -1.29849 0.607165
upperneck -2.02415 -1.6394 1.8302
head 0.12617 -0.765484 0.43186
rclavicle 7.25564e-015 7.95139e-016
rhumerus -41.7903 -30.3862 -67.2878
rradius 17.7002
rwrist 13.8851
rhand -8.31461 -50.0542
rfingers 7.12502
rthumb 17.6061 -79.2771
lclavicle 7.25564e-015 7.95139e-016
lhumerus -31.7868 15.6805 73.0377
lradius 10.6499
lwrist -22.0982
lhand -21.8513 -12.6847
lfingers 7.12502
lthumb 4.55239 17.2464
rfemur -21.0362 4.4553 21.8308
rtibia 5.51152
rfoot -20.7127 -3.60296
rtoes -11.4857
lfemur -23.5276 -8.95151 -21.3421
ltibia 8.29795
lfoot -8.12278 -6.15657
ltoes -34.0841
443
root 12.3623 18.8499 7.41211 -152.711 3.48774 177.71
lowerback -29.7218 -1.80409 -5.85737
upperback -4.74673 0.973239 -1.0747
thorax 11.0162 0.809975 2.64127
lowerneck -4.35769 -1.09535 0.489318
upperneck -2.08713 -1.36193 1.82954
head 0.0861942 -0.627825 0.455478
rclavicle -1.46604e-015 -7.15625e-015
rhumerus -41.9763 -30.6332 -66.9124
rradius 17.5443
rwrist 14.1454
rhand -8.37724 -50.447
rfingers 7.12502
rthumb 17.5458 -79.6752
lclavicle -1.46604e-015 -7.15625e-015
lhumerus -32.0529 16.9438 72.1943
lradius 10.424
lwrist -23.3905
lhand -21.6195 -12.7213
lfingers 7.12502
lthumb 4.77617 17.2049
rfemur -20.9611 4.66667 21.674
rtibia 5.44662
rfoot -20.6751 -3.84842
rtoes -11.3329
lfemur -23.4323 -8.88161 -21.4595
ltibia 8.20231
lfoot -8.09723 -6.19654
ltoes -34.1495
444
root 12.3574 18.8505 7.41214 -152.702 3.47958 177.734
lowerback -29.6439 -1.76954 -5.8872
upperback -4.7489 1.01842 -1.07811
thorax 10.9703 0.82992 2.67015
lowerneck -4.64641 -1.21102 0.912234
upperneck -2.01108 -1.54045 1.39495
head 0.149316 -0.719267 0.250883
rclavicle -7.20594e-015 6.36111e-015
rhumerus -42.2258 -30.8846 -66.5073
rradius 17.3637
rwrist 14.3465
rhand -8.66161 -50.6715
rfingers 7.12502
rthumb 17.2721 -79.9239
lclavicle -7.20594e-015 6.36111e-015
lhumerus -32.2896 18.2913 71.2647
lradius 10.1157
lwrist -24.9141
lhand -21.5577 -12.6391
lfingers 7.12502
lthumb 4.8359 17.2857
rfemur -20.9909 4.73652 21.6641
rtibia 5.48733
rfoot -20.7512 -3.89816
rtoes -10.926
lfemur -23.4147 -8.92968 -21.4452
ltibia 8.15623
lfoot -8.19126 -6.08696
ltoes -35.2141
445
root 12.3524 18.85 7.41817 -152.544 3.53225 177.846
lowerback -29.6981 -1.68251 -5.79556
upperback -4.75098 1.10558 -1.06981
thorax 10.9892 0.872869 2.66078
lowerneck -4.65018 -1.08388 0.793581
upperneck -2.18399 -1.35632 1.40181
head 0.097816 -0.62504 0.275271
rclavicle -1.41634e-015 -2.14687e-014
rhumerus -42.396 -30.8031 -66.3635
rradius 17.3776
rwrist 14.1972
rhand -8.81021 -50.7852
rfingers 7.12502
rthumb 17.1291 -80.0501
lclavicle -1.41634e-015 -2.14687e-014
lhumerus -32.1024 18.1959 71.339
lradius 9.70081
lwrist -24.8032
lhand -21.9652 -12.7278
lfingers 7.12502
lthumb 4.44235 17.2056
rfemur -21.2807 4.74474 21.7584
rtibia 5.66702
rfoot -20.8149 -3.81522
rtoes -10.9939
lfemur -23.6107 -8.93811 -21.3091
ltibia 8.14095
lfoot -8.11827 -5.98213
ltoes -35.3235
446
root 12.3525 18.8552 7.40969 -152.812 3.18912 177.704
lowerback -29.725 -1.77536 -5.95808
upperback -4.41736 0.987942 -1.07694
thorax 11.3963 0.764434 2.70104
lowerneck -5.02485 -1.40751 1.21639
upperneck -2.08571 -1.81386 0.986237
head 0.181751 -0.855355 0.0721006
rclavicle 5.96354e-015 -2.5842e-014
rhumerus -42.1717 -30.6145 -66.6374
rradius 17.6075
rwrist 13.8017
rhand -8.78196 -51.2259
rfingers 7.12502
rthumb 17.1563 -80.4884
lclavicle 5.96354e-015 -2.5842e-014
lhumerus -31.6866 18.2179 71.452
lradius 9.3524
lwrist -24.6596
lhand -22.3091 -12.9855
lfingers 7.12502
lthumb 4.1103 16.9546
rfemur -20.7406 4.86179 21.6453
rtibia 5.35401
rfoot -20.8668 -4.39495
rtoes -11.8908
lfemur -23.2963 -8.97684 -21.445
ltibia 8.11437
lfoot -7.96192 -6.52029
ltoes -33.9835
447
root 12.3518 18.8552 7.40485 -152.862 3.10004 177.665
lowerback -29.8475 -1.81888 -6.05679
upperback -4.23707 0.948508 -1.07042
thorax 11.6698 0.715973 2.75165
lowerneck -4.98921 -1.22829 1.07661
upperneck -2.34355 -1.55303 1.08976
head 0.0995418 -0.720997 0.131212
rclavicle -1.30701e-014 2.5842e-014
rhumerus -42.0307 -30.397 -66.8765
rradius 17.8393
rwrist 13.4789
rhand -8.74951 -51.3696
rfingers 7.12502
rthumb 17.1876 -80.6295
lclavicle -1.30701e-014 2.5842e-014
lhumerus -31.582 18.2322 71.4385
lradius 9.28335
lwrist -24.4169
lhand -22.295 -13.0454
lfingers 7.12502
lthumb 4.12394 16.8944
rfemur -20.6177 4.87877 21.6025
rtibia 5.29436
rfoot -21.025 -5.03684
rtoes -14.2418
lfemur -23.2332 -8.95377 -21.4949
ltibia 8.13655
lfoot -8.038 -6.78818
ltoes -33.8567
448
root 12.3465 18.8564 7.40854 -152.888 3.08014 177.697
lowerback -29.5632 -1.84177 -6.06514
upperback -4.34213 0.895917 -1.02836
thorax 11.4066 0.704811 2.77975
lowerneck -5.28458 -1.62843 1.54479
upperneck -2.16519 -2.11992 0.804148
head 0.194046 -1.0072 -0.042595
rclavicle 1.25483e-014 -2.94201e-014
rhumerus -42.1978 -30.0335 -66.8776
rradius 17.9338
rwrist 13.2288
rhand -8.75533 -51.3495
rfingers 7.12502
rthumb 17.1819 -80.6099
lclavicle 1.25483e-014 -2.94201e-014
lhumerus -31.9339 18.1676 71.257
lradius 9.31404
lwrist -24.1381
lhand -22.3567 -12.8622
lfingers 7.12502
lthumb 4.06434 17.0787
rfemur -20.6136 4.78408 21.653
rtibia 5.32087
rfoot -20.8372 -4.39152
rtoes -11.714
lfemur -23.2071 -8.9564 -21.4864
ltibia 8.15042
lfoot -8.08495 -6.67473
ltoes -34.7354
